HIERARCHY
ROOT Bone-00
{
	OFFSET 0.000000 0.000000 0.000000
	CHANNELS 6 Xposition Yposition Zposition Xrotation Yrotation Zrotation
	JOINT Bone-20
	{
		OFFSET 0.000000 0.000000 2.000000
		CHANNELS 3 Xrotation Yrotation Zrotation
		JOINT Bone-60
		{
			OFFSET 0.000000 0.000000 -0.300000
			CHANNELS 3 Xrotation Yrotation Zrotation
			JOINT Bone-61
			{
				OFFSET 0.300000 0.000000 0.000000
				CHANNELS 3 Xrotation Yrotation Zrotation
				JOINT Bone-62
				{
					OFFSET 0.000000 0.000000 -0.700000
					CHANNELS 3 Xrotation Yrotation Zrotation
					JOINT Bone-63
					{
						OFFSET 0.000000 0.000000 -0.800000
						CHANNELS 3 Xrotation Yrotation Zrotation
						End Site
						{
							OFFSET 0.000000 -0.300000 0.000000
						}
					}
				}
			}
		}
		JOINT Bone-70
		{
			OFFSET 0.000000 0.000000 -0.300000
			CHANNELS 3 Xrotation Yrotation Zrotation
			JOINT Bone-71
			{
				OFFSET -0.300000 0.000000 0.000000
				CHANNELS 3 Xrotation Yrotation Zrotation
				JOINT Bone-72
				{
					OFFSET 0.000000 0.000000 -0.700000
					CHANNELS 3 Xrotation Yrotation Zrotation
					JOINT Bone-73
					{
						OFFSET 0.000000 0.000000 -0.800000
						CHANNELS 3 Xrotation Yrotation Zrotation
						End Site
						{
							OFFSET 0.000000 -0.300000 0.000000
						}
					}
				}
			}
		}
	}
	JOINT Bone-10
	{
		OFFSET 0.000000 0.000000 2.000000
		CHANNELS 3 Xrotation Yrotation Zrotation
		JOINT Bone-30
		{
			OFFSET 0.000000 0.000000 1.000000
			CHANNELS 3 Xrotation Yrotation Zrotation
			End Site
			{
				OFFSET 0.000000 0.000000 1.000000
			}
		}
		JOINT Bone-40
		{
			OFFSET 0.000000 0.000000 1.000000
			CHANNELS 3 Xrotation Yrotation Zrotation
			JOINT Bone-41
			{
				OFFSET 0.500000 0.000000 -0.200000
				CHANNELS 3 Xrotation Yrotation Zrotation
				JOINT Bone-42
				{
					OFFSET 0.500000 0.000000 0.000000
					CHANNELS 3 Xrotation Yrotation Zrotation
					JOINT Bone-43
					{
						OFFSET 0.600000 0.000000 0.000000
						CHANNELS 3 Xrotation Yrotation Zrotation
						End Site
						{
							OFFSET 0.000000 -0.300000 0.000000
						}
					}
				}
			}
		}
		JOINT Bone-50
		{
			OFFSET 0.000000 0.000000 1.000000
			CHANNELS 3 Xrotation Yrotation Zrotation
			JOINT Bone-51
			{
				OFFSET -0.500000 0.000000 -0.204061
				CHANNELS 3 Xrotation Yrotation Zrotation
				JOINT Bone-52
				{
					OFFSET -0.500000 0.000000 0.004061
					CHANNELS 3 Xrotation Yrotation Zrotation
					JOINT Bone-53
					{
						OFFSET -0.600000 0.000000 0.000000
						CHANNELS 3 Xrotation Yrotation Zrotation
						End Site
						{
							OFFSET 0.000000 -0.300000 0.000000
						}
					}
				}
			}
		}
	}
}
MOTION
Frames: 16
Frame Time: 0.050000
0.000000 0.000000 0.000000 -0.000000 0.000000 -0.000000 -0.000000 0.000000 -0.000000 -0.000000 0.000000 0.000000 -0.000000 0.000000 -0.000000 -0.000000 0.000000 -0.000000 -0.000000 0.000000 -0.000000 -0.000000 0.000000 0.000000 -0.000000 0.000000 -0.000000 -0.000000 -0.000000 -0.000000 -0.000000 0.000000 -0.000000 -0.000000 0.000000 -0.000000 -0.000000 0.000000 -0.000000 -0.000000 -0.000003 -0.000001 -0.000000 89.999996 -0.000004 -0.000000 0.000000 0.000000 0.000000 0.000000 0.000000 -0.000000 0.000000 0.000000 -89.538787 -89.530864 -89.998876 0.000000 -0.000000 0.000000 0.000000 0.000000 -0.000000 
0.000000 0.000000 0.000000 -0.000000 0.000000 -0.000000 -0.000000 0.000000 -0.000000 -0.000000 0.000000 0.000000 -3.574097 0.000000 0.000000 -0.000000 -0.000000 -0.000000 -0.000000 0.000000 -0.000000 -0.000000 0.000000 0.000000 -0.000000 0.000000 -0.000000 -0.000000 -0.000000 -0.000000 -0.000000 0.000000 -0.000000 -0.000000 0.000000 -0.000000 -0.000000 0.000000 -0.000000 -0.000000 -0.000003 -0.000001 -0.000000 89.999989 1.477071 -0.000000 -0.000000 -0.000000 0.000000 -0.000000 -0.000000 -0.000000 0.000000 0.000000 -104.599320 -89.637374 -91.818417 0.000000 0.000000 0.000000 0.000000 -0.000000 0.000000 
0.000000 0.000000 0.000000 -0.000000 0.000000 -0.000000 -0.000000 0.000000 -0.000000 -0.000000 0.000000 0.000000 -12.056189 0.000000 0.000000 0.000000 -0.000000 0.000000 -0.000000 0.000000 -0.000000 -0.000000 0.000000 0.000000 -0.000000 0.000000 -0.000000 -0.000000 -0.000000 -0.000000 -0.000000 0.000000 -0.000000 -0.000000 0.000000 -0.000000 -0.000000 0.000000 -0.000000 -0.000000 -0.000003 -0.000001 -0.000000 89.999996 5.367546 -0.000000 0.000000 -0.000000 0.000000 0.000000 -0.000000 -0.000000 0.000000 0.000000 -216.315424 -89.777332 -159.762100 0.000000 0.000000 0.000002 0.000000 0.000000 -0.000003 
0.000000 0.000000 0.000000 -0.000000 0.000000 -0.000000 -0.000000 0.000000 -0.000000 -0.000000 0.000000 0.000000 -22.002170 0.000001 0.000000 -0.000000 -0.000000 -0.000000 -0.000000 0.000000 -0.000000 -0.000000 0.000000 0.000000 -0.000000 0.000000 -0.000000 -0.000000 -0.000000 -0.000000 -0.000000 0.000000 -0.000000 -0.000000 0.000000 -0.000000 -0.000000 0.000000 -0.000000 -0.000000 -0.000003 -0.000001 -0.000000 89.999996 10.844752 0.000000 -0.000000 0.000001 -0.000000 -0.000000 0.000000 -0.000000 0.000000 0.000000 -296.691588 -89.280784 -174.181012 -0.000000 0.000000 -0.000005 0.000000 -0.000000 0.000002 
0.000000 0.000000 0.000000 -0.000000 0.000000 -0.000000 -0.000000 0.000000 -0.000000 -0.000000 0.000000 0.000000 -30.090948 0.000001 0.000000 0.000000 -0.000000 -0.000000 -0.000000 0.000000 -0.000000 -0.000000 0.000000 0.000000 -0.000000 0.000000 -0.000000 -0.000000 -0.000000 -0.000000 -0.000000 0.000000 -0.000000 -0.000000 0.000000 -0.000000 -0.000000 0.000000 -0.000000 -0.000000 -0.000003 -0.000001 -0.000000 89.999996 17.061529 -0.000000 -0.000000 0.000002 -0.000000 -0.000000 0.000002 -0.000000 0.000000 0.000000 -325.134927 -89.016175 -158.842183 0.000000 0.000000 0.000000 -0.000000 0.000000 -0.000000 
0.000000 0.000000 0.000000 -0.000000 0.000000 -0.000000 -0.000000 0.000000 -0.000000 -0.000000 0.000000 0.000000 -33.398484 0.000001 0.000000 0.000000 -0.000000 -0.000000 -0.000000 0.000000 -0.000000 -0.000000 0.000000 0.000000 -0.000000 0.000000 -0.000000 -0.000000 -0.000000 -0.000000 -0.000000 0.000000 -0.000000 -0.000000 0.000000 -0.000000 -0.000000 0.000000 -0.000000 -0.000000 -0.000003 -0.000001 -0.000000 89.999996 23.178845 0.000000 0.000000 0.000000 0.000000 0.000000 0.000002 -0.000000 0.000000 0.000000 -333.155755 -88.961083 -153.620981 0.000000 -0.000000 0.000000 0.000000 0.000000 -0.000000 
0.000000 -0.259259 -0.077778 -0.000000 0.000000 -0.000000 -0.000000 0.000000 -0.000000 -0.000000 0.000000 0.000000 -33.398484 0.000001 0.000000 0.000000 -0.000000 -0.000000 -0.000000 0.000000 -0.000000 -0.000000 0.000000 0.000000 8.894771 -0.000000 0.000000 -0.000001 0.000000 -0.000000 -0.000001 0.000000 0.000000 -0.000000 0.000000 -0.000000 -0.000000 0.000000 -0.000000 -0.000000 -0.000003 -0.000001 -0.000000 89.999996 28.409277 -0.000000 -0.000000 0.000000 -0.000000 0.000000 0.000000 -0.000000 0.000000 0.000000 -325.319233 -89.014782 -158.725195 -0.000000 0.000000 0.000000 0.000000 0.000002 -13.199837 
0.000000 -0.740741 -0.222222 -0.000000 0.000000 -0.000000 -0.000000 0.000000 -0.000000 -0.000000 0.000000 0.000000 -33.398484 0.000001 0.000000 0.000000 -0.000000 -0.000000 -0.000000 0.000000 -0.000000 -0.000000 0.000000 0.000000 25.057620 -0.000001 0.000000 -0.000000 -0.000000 0.000000 0.000000 -0.000000 0.000000 -0.000000 0.000000 -0.000000 -0.000000 0.000000 -0.000000 -0.000000 -0.000003 -0.000001 -0.000000 89.999996 32.038532 -0.000000 -0.000000 0.000000 -0.000000 0.000000 0.000000 -0.000000 0.000000 0.000000 -302.018042 -89.226518 -171.838257 0.000000 -0.000000 -0.000005 0.000003 0.000007 -45.667324 
0.000000 -1.000000 -0.300000 -0.000000 0.000000 -0.000000 -0.000000 0.000000 -0.000000 -0.000000 0.000000 0.000000 -33.398484 0.000001 0.000000 0.000000 -0.000000 -0.000000 -0.000000 0.000000 -0.000000 -0.000000 0.000000 0.000000 33.398488 -0.000001 0.000000 0.000002 -0.000000 -0.000000 0.000002 0.000000 0.000000 -0.000000 0.000000 -0.000000 -0.000000 0.000000 -0.000000 -0.000000 -0.000003 -0.000001 -0.000000 89.999989 33.398484 0.000000 0.000000 0.000002 -0.000000 0.000000 -0.000000 -0.000000 0.000000 0.000000 -269.533389 -89.538398 -180.000674 -0.000000 0.000000 0.000000 0.000006 0.000009 -67.380130 
0.000000 -0.980324 -0.294097 -0.000000 0.000000 -0.000000 -0.000000 0.000000 -0.000000 -0.000000 0.000000 0.000000 -32.776934 0.000001 0.000000 0.000000 -0.000000 -0.000000 -0.000000 0.000000 -0.000000 -0.000000 0.000000 0.000000 32.776937 -0.000001 0.000000 -0.000000 0.000000 0.000000 0.000000 0.000000 0.000000 -0.000000 0.000000 -0.000000 -0.000000 0.000000 -0.000000 -0.000000 -0.000003 -0.000001 -0.000000 89.999989 32.776927 0.000000 0.000000 0.000000 0.000000 0.000000 0.000000 -0.000000 0.000000 0.000000 -233.084440 -89.736651 -169.431052 -0.000000 -0.000000 -0.000001 0.000006 0.000009 -65.651116 
0.000000 -0.925926 -0.277778 -0.000000 0.000000 -0.000000 -0.000000 0.000000 -0.000000 -0.000000 0.000000 0.000000 -31.048227 0.000001 0.000000 0.000000 -0.000000 0.000000 -0.000000 0.000000 -0.000000 -0.000000 0.000000 0.000000 31.048230 -0.000001 0.000000 -0.000000 0.000000 0.000000 0.000000 0.000000 0.000000 -0.000000 0.000000 -0.000000 -0.000000 0.000000 -0.000000 -0.000000 -0.000003 -0.000001 -0.000000 89.999996 31.048220 0.000000 0.000000 0.000002 0.000000 0.000000 0.000002 -0.000000 0.000000 0.000000 -176.060734 -89.806913 -132.219116 0.000000 0.000000 0.000003 0.000005 0.000009 -60.931079 
0.000000 -0.843750 -0.253125 -0.000000 0.000000 -0.000000 -0.000000 0.000000 -0.000000 -0.000000 0.000000 0.000000 -28.409277 0.000001 0.000000 0.000000 -0.000000 -0.000000 -0.000000 0.000000 -0.000000 -0.000000 0.000000 0.000000 28.409279 -0.000001 0.000000 -0.000000 0.000000 0.000000 0.000000 0.000000 -0.000000 -0.000000 0.000000 -0.000000 -0.000000 0.000000 -0.000000 -0.000000 -0.000003 -0.000001 -0.000000 89.999996 28.409272 0.000000 0.000000 0.000000 0.000000 0.000000 0.000000 -0.000000 0.000000 0.000000 -133.759187 -89.756021 -104.288874 -0.000000 0.000000 -0.000001 0.000004 0.000008 -53.991665 
0.000000 -0.740741 -0.222222 -0.000000 0.000000 -0.000000 -0.000000 0.000000 -0.000000 -0.000000 0.000000 0.000000 -25.057618 0.000001 0.000000 0.000000 -0.000000 0.000000 -0.000000 0.000000 -0.000000 -0.000000 0.000000 0.000000 25.057618 -0.000001 0.000000 -0.000000 -0.000000 0.000000 0.000000 0.000000 0.000000 -0.000000 0.000000 -0.000000 -0.000000 0.000000 -0.000000 -0.000000 -0.000003 -0.000001 -0.000000 89.999996 25.057613 0.000000 -0.000000 0.000002 0.000000 -0.000000 -0.000000 -0.000000 0.000000 0.000000 -114.048778 -89.687105 -94.778444 -0.000000 -0.000000 0.000002 0.000003 0.000007 -45.667307 
0.000000 -0.623843 -0.187153 -0.000000 0.000000 -0.000000 -0.000000 0.000000 -0.000000 -0.000000 0.000000 0.000000 -21.200871 0.000001 0.000000 -0.000002 0.000000 -0.000000 -0.000002 0.000000 -0.000000 -0.000000 0.000000 0.000000 21.200873 -0.000001 0.000000 -0.000000 -0.000000 -0.000000 0.000000 0.000000 0.000000 -0.000000 0.000000 -0.000000 -0.000000 0.000000 -0.000000 -0.000000 -0.000003 -0.000001 -0.000000 89.999989 21.200870 -0.000000 -0.000000 0.000002 -0.000000 -0.000000 0.000002 -0.000000 0.000000 0.000000 -103.725295 -89.632129 -91.610568 0.000000 0.000000 -0.000001 0.000002 0.000006 -36.785053 
0.000000 -0.500000 -0.150000 -0.000000 0.000000 -0.000000 -0.000000 0.000000 -0.000000 -0.000000 0.000000 0.000000 -17.061533 0.000001 0.000000 -0.000002 0.000000 -0.000000 -0.000002 0.000000 0.000000 -0.000000 0.000000 0.000000 17.061534 -0.000001 0.000000 -0.000000 -0.000000 0.000000 0.000000 0.000000 0.000000 -0.000000 0.000000 -0.000000 -0.000000 0.000000 -0.000000 -0.000000 -0.000003 -0.000001 -0.000000 89.999996 17.061529 -0.000000 -0.000000 0.000002 -0.000000 -0.000000 0.000002 -0.000000 0.000000 0.000000 -97.676356 -89.592650 -90.508578 0.000000 0.000000 -0.000000 0.000001 0.000005 -28.072489 
0.000000 -0.376157 -0.112847 -0.000000 0.000000 -0.000000 -0.000000 0.000000 -0.000000 -0.000000 0.000000 0.000000 -12.876863 0.000000 0.000000 -0.000000 0.000000 0.000000 -0.000000 0.000000 -0.000000 -0.000000 0.000000 0.000000 12.876863 -0.000000 0.000000 0.000000 0.000000 0.000000 0.000000 0.000000 -0.000000 -0.000000 0.000000 -0.000000 -0.000000 0.000000 -0.000000 -0.000000 -0.000003 -0.000001 -0.000000 89.999996 12.876860 0.000000 -0.000000 0.000001 -0.000000 0.000000 0.000000 -0.000000 0.000000 0.000000 -93.972734 -89.565746 -90.134789 0.000000 0.000000 -0.000000 0.000001 0.000003 -20.087200 
